<?xml version="1.0" encoding="UTF-8" standalone="no"?>
<!-- Created with Inkscape (http://www.inkscape.org/) -->

<svg
   xmlns:dc="http://purl.org/dc/elements/1.1/"
   xmlns:cc="http://creativecommons.org/ns#"
   xmlns:rdf="http://www.w3.org/1999/02/22-rdf-syntax-ns#"
   xmlns:svg="http://www.w3.org/2000/svg"
   xmlns="http://www.w3.org/2000/svg"
   xmlns:sodipodi="http://sodipodi.sourceforge.net/DTD/sodipodi-0.dtd"
   xmlns:inkscape="http://www.inkscape.org/namespaces/inkscape"
   width="200"
   height="200"
   viewBox="0 0 52.916665 52.916668"
   version="1.1"
   id="svg8"
   inkscape:version="0.92.4 (5da689c313, 2019-01-14)"
   sodipodi:docname="logo.svg"
   inkscape:export-filename="D:\data\git\botium-connector-xatkit-dev\logo.png"
   inkscape:export-xdpi="96"
   inkscape:export-ydpi="96">
  <defs
     id="defs2" />
  <sodipodi:namedview
     id="base"
     pagecolor="#ffffff"
     bordercolor="#666666"
     borderopacity="1.0"
     inkscape:pageopacity="0.0"
     inkscape:pageshadow="2"
     inkscape:zoom="2.8"
     inkscape:cx="40.133658"
     inkscape:cy="112.2614"
     inkscape:document-units="mm"
     inkscape:current-layer="g21"
     showgrid="false"
     units="px"
     inkscape:window-width="1920"
     inkscape:window-height="1017"
     inkscape:window-x="1592"
     inkscape:window-y="-8"
     inkscape:window-maximized="1" />
  <metadata
     id="metadata5">
    <rdf:RDF>
      <cc:Work
         rdf:about="">
        <dc:format>image/svg+xml</dc:format>
        <dc:type
           rdf:resource="http://purl.org/dc/dcmitype/StillImage" />
        <dc:title></dc:title>
      </cc:Work>
    </rdf:RDF>
  </metadata>
  <g
     inkscape:label="Layer 1"
     inkscape:groupmode="layer"
     id="layer1"
     transform="translate(0,-244.08332)">
    <g
       transform="matrix(0.15136549,0,0,0.15136549,1.9843795,262.44783)"
       id="g21"
       style="stroke-width:16.18496895">
      <defs
         id="SvgjsDefs2906" />
      <g
         id="g853"
         transform="matrix(1.0437376,0,0,1.0437376,-12.610338,0.42532466)"
         style="stroke-width:15.50674152">
        <g
           style="fill:#ee2a14;stroke-width:15.50674152"
           transform="matrix(2.1267533,0,0,2.1267533,6.7358042,-1.523705)"
           featureKey="symbolFeature-0"
           id="SvgjsG2907">
          <g
             style="stroke-width:15.50674152"
             id="g15">
            <path
               style="stroke-width:15.50674152"
               inkscape:connector-curvature="0"
               id="path3"
               d="m 15.9994,22.90184 c -1.469055,0 -2.659973,1.190918 -2.659973,2.660034 0,1.469056 1.190918,2.659974 2.659973,2.659974 1.469055,0 2.659972,-1.190918 2.659972,-2.659974 0,-1.469116 -1.190918,-2.660034 -2.659972,-2.660034 z m 0.233031,4 c -0.07751,0.0067 -0.155517,0.0067 -0.233031,0 -0.748352,-0.06433 -1.302856,-0.723144 -1.238464,-1.471496 0.05664,-0.659119 0.579345,-1.181824 1.238464,-1.238465 0.748351,-0.06439 1.407165,0.490112 1.471496,1.238465 0.06439,0.748352 -0.490113,1.407165 -1.238465,1.471496 z" />
            <path
               style="stroke-width:15.50674152"
               inkscape:connector-curvature="0"
               id="path5"
               d="m 32.999401,22.90184 c -1.469057,-0.0055 -2.664431,1.180908 -2.669985,2.649964 -0.0055,1.469116 1.180908,2.664489 2.649966,2.669982 1.469116,0.0056 2.664489,-1.180908 2.669982,-2.649963 6.1e-5,-0.0033 6.1e-5,-0.0067 6.1e-5,-0.0099 0,-1.46521 -1.184875,-2.654541 -2.650024,-2.660034 z m 1.349976,2.650025 c 0.0056,0.745544 -0.594361,1.354431 -1.339966,1.359924 -0.0033,6.1e-5 -0.0067,6.1e-5 -0.01001,6.1e-5 v -0.01001 c -0.751099,0.0055 -1.364443,-0.598877 -1.369936,-1.349976 -0.0055,-0.751098 0.59894,-1.36444 1.349978,-1.369934 0.751098,-0.0055 1.36444,0.598877 1.369934,1.349976 6.1e-5,0.0067 6.1e-5,0.01331 0,0.01996 z" />
            <path
               style="stroke-width:15.50674152"
               inkscape:connector-curvature="0"
               id="path7"
               d="m 21.429392,25.561874 c 0.0056,-3.440734 -2.779236,-6.234497 -6.21997,-6.23999 -3.440735,-0.0056 -6.234497,2.779236 -6.2399901,6.219971 -0.00555,3.440735 2.7792361,6.234436 6.2199711,6.23999 0.0034,0 0.0067,0 0.01001,0 3.43457,-0.0055 6.218993,-2.785461 6.22998,-6.219971 z m -6.22998,4.919983 c -2.722778,0 -4.929992,-2.207275 -4.929992,-4.929992 0,-2.722779 2.207214,-4.929993 4.929992,-4.929993 2.722779,0 4.929992,2.207214 4.929992,4.929993 0,0.0033 0,0.0067 0,0.01001 -0.0055,2.718811 -2.211121,4.919983 -4.929992,4.919983 z" />
            <path
               style="stroke-width:15.50674152"
               inkscape:connector-curvature="0"
               id="path9"
               d="m 33.769421,19.351852 c -3.440737,0 -6.229983,2.789307 -6.229983,6.230042 0,3.440735 2.789307,6.22998 6.230044,6.22998 3.440734,-6.1e-5 6.22998,-2.789306 6.22998,-6.230041 0,-0.0067 -6.1e-5,-0.01331 -6.1e-5,-0.01996 -0.01648,-3.430664 -2.799316,-6.20459 -6.22998,-6.210021 z m 4.929992,6.229981 c -0.01648,2.711059 -2.218933,4.900085 -4.929992,4.900024 v 0.02002 c -2.722781,-6.1e-5 -4.929995,-2.207276 -4.929995,-4.930054 0,-2.722717 2.207214,-4.929993 4.929995,-4.929993 2.72278,0 4.929992,2.207276 4.929992,4.930054 0,0.0033 0,0.0067 0,0.0099 z" />
            <path
               style="stroke-width:15.50674152"
               inkscape:connector-curvature="0"
               id="path11"
               d="m 27.609384,33.311874 c -1.107482,0.60492 -2.308105,0.964478 -3.570007,0.969971 -1.400329,0.01184 -2.769897,-0.41095 -3.919983,-1.210022 0.131897,-0.06757 0.268982,-0.124451 0.410034,-0.169983 0.276123,-0.08008 0.435059,-0.368835 0.354981,-0.644958 -0.08008,-0.276184 -0.368897,-0.43512 -0.64502,-0.355042 -0.970642,0.239746 -1.735717,0.985718 -2,1.950012 -0.02232,0.146187 -0.01528,0.40046 0.180586,0.518757 0.387236,0.233876 0.755301,-0.226204 0.919451,-0.668781 1.342346,1.010559 2.979798,1.551697 4.659973,1.540039 1.449341,-0.0024 2.874146,-0.374145 4.140015,-1.080017 0.23468,-0.146362 0.321459,-0.465397 0.159973,-0.690002 -0.319773,-0.444768 -0.690003,-0.159974 -0.690003,-0.159974 z" />
            <path
               style="stroke-width:15.50674152"
               inkscape:connector-curvature="0"
               id="path13"
               d="m 46.559399,22.261887 c -0.0033,0 -0.0067,-6.1e-5 -0.01001,-6.1e-5 h -1.26001 v -0.489991 c 0,-4.419983 -3.919983,-8 -8.72998,-8 h -8.479983 v -0.5 c 0,-1.104553 -0.895447,-2 -2,-2 h -1.73999 C 24.07612,9.9886933 24.36268,8.6539155 25.129404,7.5918427 l 1.159973,1.4299927 c 0.309095,0.3720589 0.770004,0.2146759 0.910034,0.1000366 l 4,-3.25 c 0.275635,-0.2213135 0.319702,-0.6241455 0.09839,-0.8997192 -0.0027,-0.00348 -0.0056,-0.0069 -0.0084,-0.010315 l -3.23999,-4 C 27.83143,0.6835786 27.429209,0.6346895 27.150949,0.852585 c -0.0039,0.003052 -0.0078,0.006165 -0.01154,0.009277 l -4,3.2399902 c -0.275635,0.230957 -0.315613,0.6400146 -0.09003,0.9199829 l 1.429993,1.7700195 c -1.012085,1.2572632 -1.431397,2.890686 -1.149964,4.4799804 h -1.190002 c -1.104615,0 -2,0.895447 -2,2 v 0.5 H 13.55939 c -4.8099979,0 -8.7299808,3.590027 -8.7299808,8 v 0.489991 H 3.5493877 c -1.1044922,-0.01105 -2.0088501,0.875366 -2.0198975,1.979919 -1.221e-4,0.01001 -1.221e-4,0.02008 -6.1e-5,0.03009 v 7.929993 c 0,1.104614 0.8953856,2 1.9999999,2 h 1.315491 c 0.1630859,4.279846 4.0075684,7.720032 8.7144779,7.720032 h 5.229979 c 0.05505,1.84375 -0.442993,3.661743 -1.429993,5.21997 -0.214294,0.308472 -0.18518,0.724427 0.07001,1 0.417371,0.460736 1.040039,0.360047 1.040039,0.360047 4,-0.840027 6.759948,-5.119995 7.709961,-6.570007 H 36.5594 c 4.809998,0 8.729981,-3.590027 8.729981,-8 v 0.289978 h 1.26001 c 1.104553,0 2,-0.895447 2,-2 v -7.950013 c 0.0056,-1.104553 -0.885376,-2.004455 -1.98999,-2.009948 z M 24.459421,4.6818695 l 3,-2.4299927 2.419983,3 -3,2.4299927 z m -3,8.5700075 c 0,-0.392151 0.317871,-0.710022 0.709961,-0.710022 h 3.929993 c 0.392151,0 0.710022,0.317871 0.710022,0.710022 v 0.5 H 21.429392 Z M 3.5493877,32.90184 c -0.3920898,0.0056 -0.7144165,-0.307861 -0.7199097,-0.69989 -6.1e-5,-0.0034 -6.1e-5,-0.0067 -6.1e-5,-0.01007 v -7.920044 c -6.1e-5,-0.392089 0.3178101,-0.710022 0.7098999,-0.710083 0.00336,0 1.2901003,1.23e-4 1.2901003,1.23e-4 v 9.339964 z m 33.0200203,7.830017 h -10.9799 c -0.124308,0 -0.239672,0.06463 -0.30459,0.170639 l -0.985531,1.609329 c -1.294983,2.210206 -3.30072,3.916321 -5.690002,4.840027 0.864868,-1.412902 1.369628,-3.016479 1.470031,-4.669983 v -1.532848 c 0,-0.197258 -0.159908,-0.357166 -0.357164,-0.357166 h -6.162854 c -4.0999759,0 -7.429993,-3.049988 -7.429993,-6.809998 V 21.771835 c 0,-3.76001 3.3300171,-6.820007 7.429993,-6.820007 h 23 c 4.099975,0 7.429992,3.059997 7.429992,6.820007 L 43.9994,33.92186 c 10e-7,3.760009 -3.330016,6.809997 -7.429992,6.809997 z m 9.989991,-7.820007 h -1.27002 v -9.349976 h 1.26001 c 0.392151,0 0.710022,0.317872 0.710022,0.709961 l 0.01001,7.929993 c 0,0.392151 -0.317872,0.710022 -0.710022,0.710022 z" />
          </g>
        </g>
        <g
           style="fill:#060606;stroke-width:15.50674152"
           transform="matrix(1.7787264,0,0,1.7787264,123.28851,6.2127361)"
           featureKey="nameFeature-0"
           id="SvgjsG2908">
          <path
             style="stroke-width:15.50674152"
             inkscape:connector-curvature="0"
             id="path18"
             d="M 0.4,40 9.56,25.48 1.24,12.08 h 6.48 l 5.84,9.96 5.96,-9.96 h 6 l -8.4,13.4 9.16,14.52 h -6.6 L 13.24,29.12 6.72,40 Z m 30.12,-14.92 -0.16,-4.6 c 2.08,-0.96 4.88,-1.56 7.16,-1.56 6.28,0 8.88,2.6 8.88,8.68 v 2.64 c 0,2.08 0.04,3.64 0.08,5.16 0.04,1.56 0.12,3 0.24,4.6 H 42 c -0.2,-1.08 -0.2,-2.44 -0.24,-3.08 h -0.08 c -1.24,2.28 -3.92,3.56 -6.36,3.56 -3.64,0 -7.2,-2.2 -7.2,-6.12 0,-3.08 1.48,-4.88 3.52,-5.88 2.04,-1 4.68,-1.2 6.92,-1.2 h 2.96 c 0,-3.32 -1.48,-4.44 -4.64,-4.44 -2.28,0 -4.56,0.88 -6.36,2.24 z m 2.72,8.96 c 0,1.76 1.48,2.52 3.4,2.52 1.64,0 2.92,-0.72 3.76,-1.84 0.88,-1.16 1.12,-2.64 1.12,-4.24 H 39.2 c -2.4,0 -5.96,0.4 -5.96,3.56 z M 53.44,33.8 V 23.32 H 49.48 V 19.4 h 3.96 v -4.12 l 5.36,-1.72 v 5.84 h 4.76 v 3.92 H 58.8 v 9.6 c 0,1.76 0.48,3.4 2.52,3.4 0.96,0 1.88,-0.2 2.44,-0.56 L 63.92,40 c -1.12,0.32 -2.36,0.48 -3.96,0.48 -4.2,0 -6.52,-2.6 -6.52,-6.68 z M 67.36,40 V 10 h 5.36 v 17.64 h 0.08 l 6.4,-8.24 h 6.32 l -7.68,9.2 8.64,11.4 h -6.8 L 72.8,30 H 72.72 V 40 Z M 89.6,40 V 19.4 h 5.36 V 40 Z m 0,-24.36 v -5.12 h 5.36 v 5.12 z M 102.36,33.8 V 23.32 H 98.4 V 19.4 h 3.96 v -4.12 l 5.36,-1.72 v 5.84 h 4.76 v 3.92 h -4.76 v 9.6 c 0,1.76 0.48,3.4 2.52,3.4 0.96,0 1.88,-0.2 2.44,-0.56 l 0.16,4.24 c -1.12,0.32 -2.36,0.48 -3.96,0.48 -4.2,0 -6.52,-2.6 -6.52,-6.68 z" />
        </g>
      </g>
    </g>
  </g>
</svg>
